<svg width="48" height="48" viewBox="0 0 48 48" fill="none" xmlns="http://www.w3.org/2000/svg">
<g id="pin 1">
<g id="Group">
<g id="Group_2">
<g id="Group_3">
<path id="Vector" d="M28.5862 33.7012L35.7663 21.0397C36.9434 18.9068 37.5653 16.4849 37.5653 14.0348C37.5653 6.29635 31.4797 0 24.0001 0C16.5204 0 10.4349 6.29635 10.4349 14.0348C10.4349 16.5141 11.063 18.9391 12.2505 21.0501L19.4129 33.7012C12.8244 34.6007 8.3479 37.3743 8.3479 40.6957C8.3479 44.8602 15.0773 48 24.0001 48C32.9239 48 39.6522 44.8602 39.6522 40.6957C39.6522 37.3743 35.1757 34.5997 28.5862 33.7012ZM14.0682 20.0243C13.0561 18.2275 12.5218 16.1562 12.5218 14.0348C12.5218 7.4473 17.6714 2.08696 24.0001 2.08696C30.3288 2.08696 35.4783 7.4473 35.4783 14.0348C35.4783 16.1332 34.9462 18.2066 33.9444 20.0202L24.0001 37.559L22.007 34.0466L14.0682 20.0243ZM24.0001 45.913C16.006 45.913 10.4349 43.1635 10.4349 40.6957C10.4349 38.713 14.1935 36.3423 20.5253 35.664L23.0922 40.1885C23.278 40.5151 23.6244 40.7165 24.0001 40.7165C24.3757 40.7165 24.7222 40.5151 24.9079 40.1885L27.4749 35.664C33.8056 36.3423 37.5653 38.713 37.5653 40.6957C37.5653 43.1635 31.9942 45.913 24.0001 45.913Z" fill="#4764C3"/>
<path id="Vector_2" d="M31.3045 13.5652C31.3045 9.53739 28.0269 6.26086 24.0001 6.26086C19.9723 6.26086 16.6958 9.53739 16.6958 13.5652C16.6958 17.593 19.9723 20.8696 24.0001 20.8696C28.0269 20.8696 31.3045 17.593 31.3045 13.5652ZM18.7828 13.5652C18.7828 10.6883 21.1233 8.34782 24.0001 8.34782C26.877 8.34782 29.2175 10.6883 29.2175 13.5652C29.2175 16.4421 26.877 18.7826 24.0001 18.7826C21.1233 18.7826 18.7828 16.4421 18.7828 13.5652Z" fill="#4764C3"/>
</g>
</g>
</g>
</g>
</svg>
